<svg width="22" height="22" viewBox="0 0 22 22" fill="none" xmlns="http://www.w3.org/2000/svg" xmlns:xlink="http://www.w3.org/1999/xlink">
 <path d="M10.6998 5.60012C10.6998 3.60012 9.49979 1.90012 7.69979 1.10012C5.89979 0.300117 3.79979 0.700117 2.39979 2.10012C0.999786 3.50012 0.599786 5.60012 1.29979 7.40012C1.99979 9.20012 3.79979 10.4001 5.79979 10.4001H10.6998V5.60012ZM12.0998 5.60012C12.0998 3.60012 13.2998 1.90012 15.0998 1.10012C16.8998 0.300117 18.9998 0.700117 20.3998 2.10012C21.7998 3.50012 22.1998 5.60012 21.4998 7.40012C20.7998 9.20012 18.9998 10.4001 16.9998 10.4001H12.0998V5.60012ZM12.0998 16.6001C12.0998 18.6001 13.2998 20.3001 15.0998 21.1001C16.8998 21.9001 18.9998 21.5001 20.3998 20.1001C21.7998 18.7001 22.1998 16.6001 21.4998 14.8001C20.7998 13.0001 18.9998 11.8001 16.9998 11.8001H12.0998V16.6001ZM5.79979 20.1001C7.69979 20.1001 9.29979 18.6001 9.29979 16.6001V13.1001H5.79979C3.89979 13.1001 2.29979 14.6001 2.29979 16.6001C2.29979 18.6001 3.89979 20.1001 5.79979 20.1001ZM10.6998 16.6001C10.6998 18.6001 9.49979 20.3001 7.69979 21.1001C5.89979 21.9001 3.79979 21.5001 2.39979 20.1001C0.999786 18.7001 0.599786 16.6001 1.29979 14.8001C1.99979 13.0001 3.79979 11.8001 5.79979 11.8001H10.6998V16.6001Z" fill="#228800">
 </path>
</svg>