<svg version="1.1" id="Layer_1" xmlns="http://www.w3.org/2000/svg" xmlns:xlink="http://www.w3.org/1999/xlink" x="0px" y="0px" viewBox="0 0 108.7 106" style="enable-background:new 0 0 108.7 106;" xml:space="preserve">
 <style type="text/css">
  .st0{fill:#FF4C00;}
 </style>
 <g>
  <g transform="translate(-154.000000, -16.000000)">
   <g transform="translate(154.000000, 16.000000)">
    <path id="Shape_2_" class="st0" d="M108.7,73c0.1-7-0.2-13.9-0.9-20.9c-0.5-4.7-2.1-10.7-7.2-11.9c0.7,0.2,1.3,0.1,2-0.1
				c5.9-3.1,5.4-10.7,3.4-16.1c-2.7-7.2-9.2-12.3-15.7-15.6C67.1-3.7,36.2-2.7,13.8,11.1C7.9,14.7,1.2,21.7,4.2,29.6
				c0.8,1.9,2,3.7,3.5,5.2c0.7,0.7,2.2,2.3,2.2,2.3c-3,4.1-5.2,7.7-6.6,12.7C-1,64.6-0.3,74.2,0.9,86.1c0.7,7.4,3.2,18.4,11.7,19.6
				c7,1,14.5-1.3,21.4-2.1c7.7-0.9,15.4-2.3,23.1-2.1c10.9,0.3,21.7,2.9,32.7,3c5.8,0.1,15.4,0.6,17.1-7c1.6-7.2,1.7-14.7,1.7-22.1
				C108.7,74.6,108.7,73.8,108.7,73z M96.2,85.5c-2.7,6.1-10.4,5.4-15.8,5c-8-0.7-15.9-2.6-24-2.9c-7.1-0.2-14.2,1.1-21.1,2.7
				c-5.2,1.1-12.4,4.1-17.1,0.1C13,86,12.1,78.5,12,72.2c0.1-5.7,0.7-11.5,1.7-17.1c0.6-3.5,1.7-6.9,3.1-10.2
				c1.9-4.7,4.6-7.6,4.8-7.4c-1.4-1.4-3.1-2.2-4-4.2c-3.6-7.4,5.3-13.7,10.2-15.9c17-7.6,40.8-6.9,56.9,2.9c5,3,14.7,13.5,5.6,18.7
				c5.6,2.6,7,10.6,7.7,16.3c1,9.1,0.7,18.3-0.9,27.3C96.9,83.6,96.6,84.6,96.2,85.5z">
    </path>
   </g>
  </g>
 </g>
</svg>